<?xml version="1.0" encoding="utf-8"?>
<!-- Generator: Adobe Illustrator 24.1.0, SVG Export Plug-In . SVG Version: 6.00 Build 0)  -->
<svg version="1.1" id="Capa_1" xmlns="http://www.w3.org/2000/svg" xmlns:xlink="http://www.w3.org/1999/xlink" x="0px" y="0px"
	 viewBox="0 0 445.79 445.79" enable-background="new 0 0 445.79 445.79" xml:space="preserve">
<path d="M95.09,445.79c-20.44,0-41.15-6.91-56.82-18.95c-16.13-12.39-27.04-30.39-30.71-50.68c-3.66-20.21,0.13-41.01,10.67-58.58
	c0,0,50.99-84.99,51.41-85.69l4.21-7.07l-61.32,17.04c-0.87,0.24-1.77,0.36-2.66,0.36c-4.42,0-8.32-2.97-9.5-7.23
	c-0.71-2.54-0.39-5.21,0.91-7.52c1.31-2.3,3.42-3.95,5.95-4.65l205.79-57.15V9.87c0-5.44,4.43-9.87,9.88-9.87
	c0.22,0,0.37,0,0.51,0.01c5.24,0.26,9.35,4.77,9.35,10.27v149.9l200.49-55.69c0.87-0.24,1.77-0.36,2.66-0.36
	c4.42,0,8.33,2.98,9.51,7.24c1.46,5.24-1.63,10.7-6.88,12.16l-72.34,20.1c0,0,44.8,74.67,49.23,82.04c1.54,2.56,3.12,5.11,4.7,7.66
	l0.09,0.14c5.15,8.32,10.48,16.91,14.32,25.93c1.43,3.35,2.57,6.82,3.4,10.31c7.31,30.58-7.24,69.87-32.45,87.57
	c-15.82,11.11-35.18,17.23-54.52,17.23c-20.44,0-41.15-6.91-56.82-18.95c-16.13-12.39-27.04-30.39-30.71-50.68
	c-3.66-20.21,0.13-41.01,10.67-58.57c0,0,50.92-84.88,51.26-85.44l4.22-7.06l-8.04,2.22l-211.31,58.7c0,0,44.96,74.94,49.33,82.22
	c1.56,2.59,3.15,5.17,4.75,7.75c5.17,8.34,10.51,16.96,14.35,25.99c1.42,3.34,2.56,6.81,3.4,10.31
	c7.31,30.58-7.24,69.87-32.45,87.57C133.79,439.67,114.43,445.79,95.09,445.79z M94.89,231.74c-0.18,0.11-0.36,0.21-0.54,0.31
	c-0.79,0.45-1.6,0.92-2.26,1.64c-0.71,0.78-1.24,1.68-1.76,2.56c-0.74,1.26-1.54,2.43-2.32,3.57l-0.07,0.1
	c-0.46,0.67-0.79,1.16-0.89,1.33l-12.91,21.53l-31.49,52.48c-0.96,1.61-1.96,3.21-2.96,4.83l-0.08,0.12
	c-2.86,4.62-5.82,9.4-8.25,14.47c-2.01,4.19-3.43,8.09-4.33,11.91c-3.55,15.14,1.55,29.44,6.46,38.76l1.19,2.3h119.08l1.27-2
	c6.72-10.6,9.93-21.03,9.53-31.01c-0.45-11.68-6.29-21.41-11.94-30.82l-0.11-0.18c-8.14-13.56-16.28-27.13-24.41-40.69l-31.39-52.32
	L94.89,231.74z M351.59,159.97c-0.38,0.23-0.76,0.46-1.15,0.69c-0.32,0.19-0.75,0.43-1.21,0.61c-0.34,0.14-0.84,0.38-1.21,0.8
	c-0.24,0.28-0.39,0.59-0.54,0.9l-0.08,0.16c-0.42,0.83-0.95,1.62-1.47,2.39l-0.44,0.66c-0.55,0.83-1.11,1.65-1.67,2.47
	c-0.46,0.67-0.79,1.16-0.89,1.33c-0.02,0.04-11.4,19-12.91,21.53l-31.49,52.48c-0.92,1.54-1.87,3.08-2.83,4.62l-0.21,0.33
	c-2.86,4.62-5.81,9.39-8.25,14.46c-2.01,4.2-3.43,8.1-4.33,11.91c-2.36,10.06-1.12,21.35,3.58,32.64
	c9.88,23.75,34.06,41.26,60.16,43.58c1.94,0.17,3.91,0.26,5.86,0.26c15.37,0,30.88-5.24,43.69-14.75
	c7.9-5.87,14.3-13.17,18.52-21.13c3.26-6.16,5.23-12.67,5.85-19.36c0.7-7.58-0.09-15.83-2.34-24.51
	c-1.64-6.34-4.93-11.69-8.11-16.86c-0.58-0.94-1.15-1.87-1.71-2.81c-8.25-13.75-16.5-27.5-24.75-41.25l-31.06-51.77L351.59,159.97z"
	/>
</svg>
