<?xml version="1.0" encoding="utf-8"?>
<!-- Generator: Adobe Illustrator 24.1.0, SVG Export Plug-In . SVG Version: 6.00 Build 0)  -->
<svg version="1.1" id="Capa_1" xmlns="http://www.w3.org/2000/svg" xmlns:xlink="http://www.w3.org/1999/xlink" x="0px" y="0px"
	 viewBox="0 0 383.82 444.39" enable-background="new 0 0 383.82 444.39" xml:space="preserve">
<path d="M10.41,444.39c-2.94,0-5.76-1.25-7.73-3.44c-1.97-2.19-2.92-5.12-2.62-8.05l34.23-325.98c0.56-5.31,5.01-9.32,10.35-9.32
	h67.34V79.93C111.98,35.86,147.83,0,191.91,0c44.07,0,79.93,35.86,79.93,79.93V97.6h67.34c5.34,0,9.79,4.01,10.35,9.32l34.23,325.98
	c0.31,2.93-0.65,5.86-2.62,8.05c-1.97,2.19-4.79,3.44-7.73,3.44H10.41z M21.96,423.58h339.9l-32.05-305.17h-57.97v32.54
	c0,5.74-4.67,10.4-10.41,10.4s-10.4-4.67-10.4-10.4v-32.54H132.79v32.54c0,5.74-4.67,10.4-10.4,10.4c-5.74,0-10.41-4.67-10.41-10.4
	v-32.54H54.01L21.96,423.58z M191.91,20.81c-32.6,0-59.12,26.52-59.12,59.12V97.6h118.24V79.93
	C251.03,47.33,224.51,20.81,191.91,20.81z"/>
</svg>
