<svg xmlns="http://www.w3.org/2000/svg" height="48" width="48">
    <circle cx="24" cy="24" r="21" stroke="#884afc" fill="none" stroke-width="3"/>

    <path fill="#884afc" stroke="#884afc"  stroke-linecap="round"
       d="M 23.652344 9.0644531 L 9.8515625 33.039062 L 37.796875 33.025391 L 23.652344 9.0644531 z M 23.841797 15.822266 C 26.389982 15.799816 25.962816 19.044302 25.962891 21.722656 C 25.995161 24.210108 26.490691 27.052058 24.083984 27.046875 C 21.55739 27.022505 22.036184 24.129435 22.03125 22.076172 C 22.031324 19.113093 21.47115 15.847595 23.841797 15.822266 z M 24.09375 28.416016 A 1.7235727 1.7788155 0 0 1 25.816406 30.195312 A 1.7235727 1.7788155 0 0 1 24.09375 31.974609 A 1.7235727 1.7788155 0 0 1 22.371094 30.195312 A 1.7235727 1.7788155 0 0 1 24.09375 28.416016 z " 
    />
       

</svg>