<svg xmlns="http://www.w3.org/2000/svg" height="48" width="48">
    <circle cx="24" cy="24" r="21" stroke="#ffd426" fill="none" stroke-width="3"/>
    <rect x="10.159018" y="13.649235" width="4.2560601" height="2.0761299" fill="#ffd426"/>
    <rect x="17.649055" y="-8.4563017" width="17.8806" height="2.0761299" rx="1.0380599" transform="rotate(69.6255)" fill="#ffd426"/>
    <rect x="14.588526" y="17.738955" width="9.7339993" height="2.0761299" rx="0.60837346" fill="#ffd426"/>
    <rect x="-25.432808" y="35.582771" width="13.0871" height="2.0761299" rx="1.0380599" transform="rotate(-80.9286)" fill="#ffd426"/>
    <rect x="17.425436" y="29.220175" width="15.8824" height="2.0761299" rx="1.0380599" fill="#ffd426"/>
    <rect x="16.387405" y="33.372375" width="9.3425703" height="2.0761299" rx="1.0380599" fill="#ffd426"/>
    <path d="m 18.463526,30.258275 c -1.55709,0 -2.59516,0.2799 -2.59516,2.0761 0,2.0761 1.5571,2.0761 2.07613,2.0761" stroke="#ffd426" fill="none" stroke-width="2"/>
    <circle cx="19.501606" cy="36.486572" r="2.1141901" stroke="#ffd426" stroke-width="2" fill="none"/>
    <circle cx="30.920254" cy="36.486572" r="2.1141901" stroke="#ffd426" stroke-width="2" fill="none"/>
    <path stroke="#ffd426" stroke-width="2.5" stroke-linejoin="round" stroke-linecap="round" fill="none"
        d="m 34.768555,10.807612 c 0,0 -4.226315,2.15921 -6.541016,4.994141 -1.740813,2.132061 -2.472446,4.672589 -2.78125,6.521484 m -0.224609,2.537144 c 0,0 -0.02497,-1.042785 0.224609,-2.53711 m -3.714844,-0.02539 3.357422,3.269531 3.316407,-3.22461"/>
</svg>
