<svg xmlns="http://www.w3.org/2000/svg" height="48" width="48">
    <circle cx="24" cy="24" r="21" stroke="#A5A7A9" fill="none" stroke-width="3"/>
    <path d="m 33.923795,11.486456 c 0,0 -4.226315,2.15921 -6.541016,4.994141 -1.740813,2.132061 -2.472446,4.672589 -2.78125,6.521484 m -0.224609,2.537144 c 0,0 -0.02497,-1.042785 0.224609,-2.53711 m -3.714844,-0.02539 3.357422,3.269531 3.316407,-3.22461" 
        fill="none" stroke="#A5A7A9" stroke-width="2.5"  stroke-linejoin="round" stroke-linecap="round" />
    <path d="M 38.193359,19.789062 30.808594,16.5 m -8.360405,1.30131 -4.002857,-1.737761 m 7.40625,-1.75 -1.532678,-0.603256 -13.657678,5.490495 7.613576,3.072393 m -7.63613,-3.046619 0.09179,11.466797 13.703123,5.756836 13.818357,-5.526368 -0.05859,-11.134766 -6.241804,2.613511 -3.842563,-1.773782 m 6.994524,2.816521 -0.117188,3.46875 -6.658203,2.857422 v -3.46289 z m -10.636695,12.950982 -0.0033,-6.930577" 
        fill="none" stroke="#A5A7A9" stroke-width="1"  stroke-linejoin="round" stroke-linecap="round"/>
</svg>