<svg xmlns="http://www.w3.org/2000/svg" height="48" width="48">
    <circle cx="24" cy="24" r="21" stroke="#A5A7A9" fill="none" stroke-width="3"/>
    <path d="m 14.394531,10.320312 v 2.890626 h 18.927735 v -2.890626 z m 1.361328,3.998047 c 0,0 0.148415,2.86041 1.269532,5.148438 1.151982,2.351024 3.126953,3.558594 3.126953,3.558594 l 0.0098,1.818359 c 0,0 -2.117729,1.438302 -3.203125,3.634766 -1.2284,2.485857 -1.55664,5.126953 -1.55664,5.126953 h 16.195312 c 0,0 -0.148414,-2.862363 -1.269531,-5.150391 -1.151984,-2.351024 -3.173828,-3.582031 -3.173828,-3.582031 l 0.0068,-1.810547 c 0,0 2.148002,-1.420724 3.233398,-3.617188 1.228402,-2.485857 1.558594,-5.126953 1.558594,-5.126953 z m -1.486328,20.341797 v 2.892578 h 18.925781 v -2.892578 z" 
        fill="#A5A7A9" stroke="#A5A7A9" stroke-width="0.1" />
    
</svg>