<svg xmlns="http://www.w3.org/2000/svg" height="48" width="48">
    <circle cx="24" cy="24" r="21" stroke="#A5A7A9" fill="none" stroke-width="3"/>
    <rect
       stroke="#A5A7A9" fill="#A5A7A9"
       width="4"
       height="4"
       x="21.5625"
       y="33.65625"
       rx="0.031861197" />
    <path
        stroke="#A5A7A9" fill="#A5A7A9"
       d="M 25.5,31.4375 V 26.5 l 3.84375,-5.28125 c 0,0 0.522341,-0.722919 0.65625,-1.140625 0.150303,-0.468844 0.145065,-1.469901 0.145065,-1.469901 l 0.02007,-5.516776 c 0,0 0.175738,-1.024456 -0.618907,-1.774046 -0.794645,-0.74959 -3.038723,-0.545602 -5.614183,-0.537597 -2.575461,0.008 -5.166548,-0.153108 -5.698127,0.619513 -0.531579,0.772621 -0.531406,1.120755 -0.531406,1.120755 L 17.75,19 h 3.90625 v -4.875 l 4.546875,0.04687 -0.03125,5.14063 -3.593902,4.847002 c 0,0 -0.602155,0.816982 -0.765473,1.289372 -0.171639,0.496457 -0.204235,1.562579 -0.204235,1.562579 L 21.625,31.46875 Z"/>

</svg>