<svg xmlns="http://www.w3.org/2000/svg" height="48" width="48">
    <circle cx="24" cy="24" r="21" stroke="#A5A7A9" fill="none" stroke-width="3"/>

    <path fill="none" stroke="#A5A7A9"  stroke-width="2.5" stroke-linejoin="round" stroke-linecap="round"
       d="m 34.294922,11.535156 c 0,0 -4.226315,2.15921 -6.541016,4.994141 -1.740813,2.132061 -2.472446,4.672589 -2.78125,6.521484 m -0.224609,2.537144 c 0,0 -0.02497,-1.042785 0.224609,-2.53711 m -3.714844,-0.02539 3.357422,3.269531 3.316407,-3.22461 m -2.830067,-8.68563 -16.5839959,-0.0058 0.029297,18.597656 3.5839839,0.01367 0.002,-0.002 c -0.0041,-0.04355 -0.0074,-0.08718 -0.0098,-0.130859 0.0031,-1.456594 0.942558,-2.746002 2.328125,-3.195313 m -2.318372,3.32621 c 0.06989,1.804703 1.55137,3.232746 3.357422,3.236328 1.859776,3.13e-4 3.3675,-1.507411 3.367188,-3.367187 -7.66e-4,-1.859013 -1.508175,-3.365547 -3.367188,-3.365234 -0.353122,0.0018 -0.703763,0.05914 -1.039062,0.169921 m 25.773437,-5.691405 -2.78125,-5.0625 L 30.1875,19 m 6.232421,11.058594 c 0.499185,0.392904 0.877018,0.919026 1.089844,1.517578 l -0.0046,-0.0046 c 0.128907,0.361761 0.199538,0.747488 0.199888,1.131529 3.12e-4,1.859013 -1.506221,3.366421 -3.365234,3.367187 -1.859776,3.13e-4 -3.3675,-1.507411 -3.367188,-3.367187 7.66e-4,-1.859013 1.508175,-3.365547 3.367188,-3.365234 0.754531,3.52e-4 1.487072,0.254162 2.080078,0.720703 m 1.798828,2.503906 2,-0.0625 0.0625,-8.40625 -8.125,0.03125 M 19.34375,32.75 h 11.625 z" 
    />
       

</svg>